# xmcd
#
# Track frame offsets:
#	150
#	20751
#	47103
#	64740
#	87100
#	107083
#	125191
#	149134
#	163977
#	181295
#	203977
#
# Disc length: 3042 seconds
#
# Revision: 0
# Processed by: cddbd v1.4PL0 Copyright (c) Steve Scherf et al.
# Submitted via: dBpowerAMP V4.0
#
DISCID=ab0be00b
DTITLE=廖士賢 - 完美世界
DYEAR=1900
DGENRE=
TTITLE0=完美世界
TTITLE1=找愛
TTITLE2=自省
TTITLE3=如果我是你
TTITLE4=靡亂
TTITLE5=淹沒
TTITLE6=煙圈•圓圈
TTITLE7=眼睛
TTITLE8=時代
TTITLE9=白賊話
TTITLE10=希望
EXTD=
EXTT0=
EXTT1=
EXTT2=
EXTT3=
EXTT4=
EXTT5=
EXTT6=
EXTT7=
EXTT8=
EXTT9=
EXTT10=
PLAYORDER=
